<svg xmlns="http://www.w3.org/2000/svg" viewBox="0 0 197.32 57.6"><defs><style>.cls-1{font-size:42.09px;font-family:Raleway-Medium, Raleway;font-weight:500;letter-spacing:-0.02em;}.cls-2,.cls-3{font-family:Raleway-Bold, Raleway;font-weight:700;}.cls-3{letter-spacing:-0.03em;}</style></defs><g id="Layer_2" data-name="Layer 2"><g id="Layer_1-2" data-name="Layer 1"><text class="cls-1" transform="translate(67.55 41.97)">Cy<tspan class="cls-2" x="49.96" y="0">S</tspan><tspan class="cls-3" x="74.93" y="0">o</tspan><tspan class="cls-2" x="99.25" y="0">ft</tspan></text><path d="M28.92,0H28.8A28.79,28.79,0,0,0,0,28.8H0A28.8,28.8,0,0,0,28.8,57.6h.12a28.81,28.81,0,0,0,28.8-28.8h0A28.8,28.8,0,0,0,28.92,0Zm-.06,43.44a14.64,14.64,0,1,1,4.46-28.58L27.69,28.93h15.8A14.64,14.64,0,0,1,28.86,43.44Z"/></g></g></svg>